<svg version="1.2" xmlns="http://www.w3.org/2000/svg" viewBox="0 0 380 90" width="380" height="90">
	<title>
		logo-svg
	</title>
	<style>
		.s0 { fill: #4c71d6;stroke: #4c71d6;stroke-width: 0 }
		.s1 { fill: #45189e;stroke: #45189e;stroke-width: 0 }
		.s2 { fill: #3f40b2;stroke: #3f40b2;stroke-width: 0 }
	</style>
	<g>
		<g>
			<g>
			</g>
			<g>
				<g>
					<path class="s0" d="m6.4 4.6h17.8v80.1h-17.8z" />
					<path fill-rule="evenodd" class="s1" d="m36.2 62.8c-16.5 0-29.8-13.3-29.8-29.7 0-16.4 13.3-29.7 29.8-29.7 16.4 0 29.7 13.3 29.7 29.7 0 16.4-13.3 29.7-29.7 29.7zm0-41.6c-6.6 0-12 5.3-12 11.9 0 6.6 5.4 11.9 12 11.9 6.5 0 11.9-5.3 11.9-11.9 0-6.6-5.4-11.9-11.9-11.9z" />
					<path class="s2" d="m6.4 33.1c0-12.2 7.3-22.6 17.8-27.2v54.4c-10.5-4.6-17.8-15-17.8-27.2z" />
				</g>
				<g>
					<path fill-rule="evenodd" class="s1" d="m102 62.8c-16.4 0-29.8-13.3-29.8-29.7 0-16.4 13.4-29.7 29.8-29.7 16.4 0 29.7 13.3 29.7 29.7 0 16.4-13.3 29.7-29.7 29.7zm0-41.6c-6.6 0-12 5.3-12 11.9 0 6.6 5.4 11.9 12 11.9 6.5 0 11.9-5.3 11.9-11.9 0-6.6-5.4-11.9-11.9-11.9z" />
					<path class="s0" d="m113.9 33.1h17.8v28.5h-17.8z" />
					<path class="s2" d="m113.9 60.3v-27.2h17.8c0 12.2-7.3 22.6-17.8 27.2z" />
				</g>
				<g>
					<path class="s1" d="m169.1 62.8c-16.4 0-29.7-13.3-29.7-29.7 0-16.4 13.3-29.7 29.7-29.7 9.9 0 19 4.8 24.6 12.9l-14.7 10.1c-2.2-3.3-5.9-5.2-9.9-5.2-6.6 0-11.9 5.3-11.9 11.9 0 6.6 5.3 11.9 11.9 11.9 3.8 0 7.3-1.7 9.6-4.8l14.3 10.6c-5.6 7.6-14.5 12-23.9 12z" />
				</g>
				<g>
					<path class="s0" d="m235.9 4.6h18.6l-19.5 57h-18.6z" />
					<path class="s1" d="m197 4.6h18.6l19.4 57h-18.6z" />
					<path class="s2" d="m225.7 34.2l9.3 27.4h-18.6z" />
				</g>
				<g>
					<path fill-rule="evenodd" class="s1" d="m286.8 62.8c-16.4 0-29.8-13.3-29.8-29.7 0-16.4 13.4-29.7 29.8-29.7 16.4 0 29.7 13.3 29.7 29.7 0 16.4-13.3 29.7-29.7 29.7zm0-41.6c-6.6 0-11.9 5.3-11.9 11.9 0 6.6 5.3 11.9 11.9 11.9 6.6 0 11.9-5.3 11.9-11.9 0-6.6-5.3-11.9-11.9-11.9z" />
				</g>
				<g>
					<path class="s1" d="m356.1 4.6h21.5l-38.9 57h-21.5z" />
					<path class="s0" d="m317.2 4.6h21.5l38.9 57h-21.5z" />
					<path class="s2" d="m347.4 17.3l10.7 15.8-10.7 15.7-10.7-15.7z" />
				</g>
			</g>
		</g>
	</g>
</svg>
